PathFileType	4	(X/Y/Z)	/home/filipkon/dev/OpenSimRT/data/gait1992/experimental_data/task_resampled.trc
DataRate	CameraRate	NumFrames	NumMarkers	Units	OrigDataRate	OrigDataStartFrame	OrigNumFrames
100	100	4	41	mm	100	0	251
Frame#	Time	R.ASIS			L.ASIS			V.Sacral			R.Thigh.Upper			R.Thigh.Front			R.Thigh.Rear			L.Thigh.Upper			L.Thigh.Front			L.Thigh.Rear			R.Shank.Upper			R.Shank.Front			R.Shank.Rear			L.Shank.Upper			L.Shank.Front			L.Shank.Rear			R.Heel			R.Midfoot.Sup			R.Midfoot.Lat			R.Toe.Tip			L.Heel			L.Midfoot.Sup			L.Midfoot.Lat			L.Toe.Tip			Sternum			R.Acromium			L.Acromium			R.Bicep			L.Bicep			R.Elbow			L.Elbow			R.Wrist.Med			R.Wrist.Lat			L.Wrist.Med			L.Wrist.Lat			R.Toe.Lat			R.Toe.Med			L.Toe.Lat			L.Toe.Med			R.Temple			L.Temple			Top.Head			
		X1	Y1	Z1	X2	Y2	Z2	X3	Y3	Z3	X4	Y4	Z4	X5	Y5	Z5	X6	Y6	Z6	X7	Y7	Z7	X8	Y8	Z8	X9	Y9	Z9	X10	Y10	Z10	X11	Y11	Z11	X12	Y12	Z12	X13	Y13	Z13	X14	Y14	Z14	X15	Y15	Z15	X16	Y16	Z16	X17	Y17	Z17	X18	Y18	Z18	X19	Y19	Z19	X20	Y20	Z20	X21	Y21	Z21	X22	Y22	Z22	X23	Y23	Z23	X24	Y24	Z24	X25	Y25	Z25	X26	Y26	Z26	X27	Y27	Z27	X28	Y28	Z28	X29	Y29	Z29	X30	Y30	Z30	X31	Y31	Z31	X32	Y32	Z32	X33	Y33	Z33	X34	Y34	Z34	X35	Y35	Z35	X36	Y36	Z36	X37	Y37	Z37	X38	Y38	Z38	X39	Y39	Z39	X40	Y40	Z40	X41	Y41	Z41	

1	0	617.24762	1055.27502	170.78198	639.6063799999999	1044.25842	-88.90979	430.86984	1051.26465	29.96675	517.3327	741.09601	212.08337	570.2014799999999	666.70557	123.68554	480.06427	626.51483	199.55385	659.57892	745.05798	-145.97218	750.4809	735.8501	-73.48505	697.42963	642.68182	-137.3696	360.9039	474.04004	186.84929	420.86743	412.36603	134.71933	343.73737	388.03668	189.83162	750.32623	446.17697	-128.52777	819.76385	415.13217	-81.7	750.04584	397.94098	-138.884	156.44276	113.07307	104.00257	297.18088	88.12213	67.0685	288.24664	73.76622999999999	176.63014	429.09286	43.0861	110.59769	815.7641599999999	63.39788	-51.75869	967.98993	122.58054	-32.7704	943.78925	105.3372	-122.34442	1078.70935	143.54796	-60.93587	660.82678	1353.77527	20.19839	566.59839	1449.57959	229.99652	596.42383	1468.96814	-186.70021	593.64148	1249.10791	279.7764	580.73468	1233.74133	-222.92732	567.0025000000001	1143.10925	315.56631	518.1027800000001	1146.32483	-260.95828	771.5632900000001	973.7791099999999	273.7876	746.20697	944.37811	327.45282	619.8230600000001	916.1698	-218.32727	574.16254	905.8773200000001	-276.12146	366.12296	35.90821	193.14078	375.86584	39.8688	81.17185000000001	1022.03961	113.13824	-136.45811	1034.97046	125.07877	-34.93821	736.52234	1571.58154	106.42087	748.242	1574.96411	-31.66723	749.33246	1747.60767	46.74146	
2	0.01	617.6890847058824	1054.064731764706	169.4473858823529	640.5651035294118	1043.093796470588	-90.09940176470589	431.7349988235295	1050.660402941176	28.1314794117647	516.9098	740.7018276470587	211.5751641176471	570.3882094117647	665.2309582352941	123.51384	479.8149229411765	626.0079182352941	199.4135147058824	660.7754964705882	744.1811211764706	-146.2466152941176	754.2287411764705	736.1871176470588	-75.6472794117647	699.3650182352941	641.9825023529412	-136.4187	359.0157588235294	474.2266105882353	186.9651370588235	417.6466947058823	412.0437064705882	134.7593005882353	339.7220464705882	389.2253035294117	190.448414117647	753.1467358823529	444.8560641176471	-128.6494935294118	820.1496676470589	412.0463229411765	-80.13041764705882	750.3512988235294	397.368685882353	-137.9568588235294	147.9373894117647	117.90707	104.6115288235294	288.2384388235294	90.18827705882353	67.89069411764706	278.5764458823529	74.93267117647058	177.1480047058824	417.7933011764705	43.11731764705883	110.5776311764706	806.3851776470588	64.81126235294117	-50.69257823529412	961.7909476470588	117.3840105882353	-29.77434117647059	943.78925	105.3372	-122.34442	1073.160679411765	134.6849188235294	-58.15094647058824	661.1222976470589	1353.14761117647	18.46026058823529	566.790395882353	1449.204260588235	227.7237670588235	596.4217123529411	1467.466245882353	-189.5101511764706	593.3844505882353	1248.784639411765	277.5806588235294	581.7121741176471	1231.916094705882	-224.7025082352941	566.4935764705883	1142.787414705882	313.8158629411765	519.1778623529412	1143.882488823529	-262.0661211764706	768.9769076470589	971.3056452941177	273.0611352941177	743.9708229411765	942.3972335294118	326.5537552941177	621.7240894117647	913.9036352941176	-219.5574405882353	575.4115341176471	903.9724494117647	-277.4991305882353	354.43006	35.85102764705882	193.3020564705882	365.9152811764706	39.83170588235294	81.03256764705883	1015.594045294118	106.0472517647059	-134.1458923529412	1028.518542352941	117.1585523529412	-32.43320411764706	736.2397105882353	1571.139792941176	103.6943229411765	748.3417764705882	1574.421398235294	-34.60717117647059	750.1250188235293	1747.056340588235	43.46073647058824	
3	0.02	618.428259375	1052.946350625	168.015584375	641.678843125	1042.050228125	-91.564959375	432.67038875	1050.06943	26.279146875	516.8322375	740.286214375	210.9776125	570.50695	663.991019375	123.33741125	479.608548125	625.537505	199.29980375	662.01886125	743.378333125	-146.58274625	757.599678125	736.6070856250001	-77.78808375	701.069704375	641.31963625	-135.520245625	357.370054375	474.67916625	187.174260625	414.604168125	411.568193125	134.949971875	336.036653125	390.429004375	190.975778125	755.2420781249999	443.56271875	-128.372643125	820.58757875	409.35746125	-78.6503725	750.6046375	396.830224375	-137.10616625	139.372641875	122.995396875	105.23546625	279.18462	92.32956375000001	68.73114312499999	268.80702125	76.194216875	177.668465625	406.299343125	43.132118125	110.523628125	796.92805875	66.22403312499999	-49.738218125	955.366958125	112.18326375	-26.891263125	941.7233731250001	103.837025625	-122.025454375	1067.361738125	125.753465625	-55.46698	661.67959	1352.53549125	16.56622625	567.04571875	1448.8066725	225.325759375	596.4280806249999	1465.946719375	-192.328785625	593.16784	1248.59398625	275.38819625	582.919175625	1230.0923625	-226.500115625	565.9191025	1142.632969375	311.800935	520.5199387500001	1141.59908875	-263.5158675	766.2272581249999	968.7145849999999	272.3408025	741.2001706250001	940.3179200000001	325.70199375	623.70173375	911.737849375	-220.938443125	576.9189162500001	901.9794487500001	-278.952798125	342.997070625	35.6174475	193.518755625	355.72619875	39.735399375	80.90737249999999	1008.876450625	98.87892562500001	-131.92675125	1021.846716875	109.227226875	-30.04375625	736.141055625	1570.776508125	100.863069375	748.49469375	1573.632375	-37.65432	750.74728375	1746.672241875	40.20703875	
4	0.03	619.862090625	1052.042419375	166.356965625	643.1542868749999	1041.289121875	-93.674390625	433.76965125	1049.50943	24.387003125	517.5604625	739.820595625	210.1715875	570.46705	663.2986506250001	123.14994875	479.502441875	625.1522550000001	199.24821625	663.37139875	742.748376875	-147.06283375	760.091171875	737.220604375	-79.87889625	702.236085625	640.74182375	-134.744164375	356.290035625	475.75235375	187.601029375	411.977461875	410.735236875	135.492278125	333.121096875	391.667885625	191.294471875	755.6453718749999	442.33368125	-127.165786875	821.14704125	407.59489875	-77.37924750000001	750.7363625	396.370705625	-136.43385375	130.669348125	128.677153125	105.89435375	269.87092	94.64617625	69.61418687499999	258.80605875	77.677673125	178.194984375	394.351786875	43.108611875	110.390421875	787.28862125	67.63537687499999	-49.044611875	948.417951875	106.97267625	-24.271806875	934.837116875	98.836444375	-120.962235625	1060.978831875	116.662384375	-53.01858	662.8476900000001	1351.95962875	14.30841375	567.44878125	1448.3571475	222.635490625	596.4542493749999	1464.386050625	-195.167704375	593.0455400000001	1248.71277375	273.20338375	584.661694375	1228.2721375	-228.350034375	565.1916775	1142.869100625	309.168885	522.48500125	1139.68655125	-265.7633925	763.096651875	965.849135	271.6347775	737.182339375	938.00892	324.96060625	625.85814625	909.806280625	-222.671386875	579.02920375	899.7808112500001	-280.583791875	332.170539375	34.9722725	193.864774375	344.98056125	39.500930625	80.81504750000001	1001.524119375	91.53014437499999	-129.92478875	1014.661773125	101.269983125	-27.92394375	736.471674375	1570.596301875	97.78750062499999	748.77160625	1572.268625	-40.95162	750.97219625	1746.678348125	37.01640125	
